<?xml version="1.0" encoding="utf-8"?>
<svg xmlns="http://www.w3.org/2000/svg" style="margin: auto; display: block; shape-rendering: auto; background: none;" width="388" height="108" preserveAspectRatio="xMidYMid">
<style type="text/css">
  text {
    text-anchor: middle; font-size: 54px; opacity: 0;
  }
</style>
<g style="transform-origin: 194px 54px; transform: scale(0.885246);">
<g transform="translate(194,54)">
  <g transform="translate(0,0)"><g class="path" style="transform: translate(0px, 0px); transform-origin: -183.975px -0.93177px; animation: 1s linear -0.609231s infinite normal forwards running bounceAlt-2e5de5c3-e70f-4043-b4de-119d3726338a;"><path d="M46.73-46.79L46.73-46.79Q46.73-44.96 45.96-44.04L45.96-44.04L45.96-44.04Q45.20-43.13 43.49-43.13L43.49-43.13L43.49-43.13Q43.37-41.85 42.94-38.67L42.94-38.67L42.94-38.67Q42.33-34.40 42.27-33.92L42.27-33.92L42.27-33.92Q36.84 6.53 19.64 6.53L19.64 6.53L19.64 6.53Q14.58 6.53 11.74 3.66L11.74 3.66L11.74 3.66Q8.91 0.79 8.91-3.54L8.91-3.54L8.91-3.54Q8.91-11.29 15.49-17.23L15.49-17.23L15.49-17.23Q22.08-23.18 32.82-27.08L32.82-27.08L32.82-27.08Q33.49-31.41 33.85-34.83L33.85-34.83L34.95-44.04L34.95-44.04Q31.29-44.41 28.12-44.41L28.12-44.41L28.12-44.41Q19.64-44.41 15.62-42.76L15.62-42.76L15.62-42.76Q11.59-41.11 11.59-37.39L11.59-37.39L11.59-37.39Q11.59-35.56 12.81-33.43L12.81-33.43L12.81-33.43Q13.18-32.82 13.18-32.15L13.18-32.15L13.18-32.15Q13.18-30.87 11.86-29.86L11.86-29.86L11.86-29.86Q10.55-28.85 9.03-28.85L9.03-28.85L9.03-28.85Q7.08-28.85 6.04-30.50L6.04-30.50L6.04-30.50Q4.33-33.31 4.33-37.03L4.33-37.03L4.33-37.03Q4.33-51.67 29.95-51.67L29.95-51.67L29.95-51.67Q37.39-51.67 43.25-50.20L43.25-50.20L43.25-50.20Q46.73-49.35 46.73-46.79L46.73-46.79zM20.43 0L20.43 0Q23.42 0 26.41-4.51L26.41-4.51L26.41-4.51Q29.40-9.03 31.66-20.31L31.66-20.31L31.66-20.31Q16.77-13.79 16.77-4.33L16.77-4.33L16.77-4.33Q16.77-2.26 17.75-1.13L17.75-1.13L17.75-1.13Q18.73 0 20.43 0L20.43 0" fill="#9c0404" stroke="none" stroke-width="none" transform="translate(-209.5050048828125,21.63822901799129)" style="fill: rgb(156, 4, 4);"></path></g><g class="path" style="transform: translate(0px, 0px); transform-origin: -144.695px 7.57323px; animation: 1s linear -0.558462s infinite normal forwards running bounceAlt-2e5de5c3-e70f-4043-b4de-119d3726338a;"><path d="M54.47 0.30L54.47 0.30Q51.73 0.30 49.99-2.23L49.99-2.23L49.99-2.23Q48.25-4.76 48.25-8.54L48.25-8.54L48.25-8.54Q48.25-13.12 48.86-16.93L48.86-16.93L48.86-16.93Q49.47-20.74 50.87-25.01L50.87-25.01L50.87-25.01Q51.48-26.84 52.58-27.63L52.58-27.63L52.58-27.63Q53.68-28.43 56.06-28.43L56.06-28.43L56.06-28.43Q57.40-28.43 57.92-28.00L57.92-28.00L57.92-28.00Q58.44-27.57 58.44-26.72L58.44-26.72L58.44-26.72Q58.44-26.23 57.77-23.42L57.77-23.42L57.77-23.42Q57.16-21.17 56.79-19.34L56.79-19.34L56.79-19.34Q55.57-12.93 55.57-10.80L55.57-10.80L55.57-10.80Q55.57-9.52 55.88-9.00L55.88-9.00L55.88-9.00Q56.18-8.48 56.85-8.48L56.85-8.48L56.85-8.48Q57.77-8.48 59.14-10.31L59.14-10.31L59.14-10.31Q60.51-12.14 62.07-15.86L62.07-15.86L62.07-15.86Q63.62-19.58 65.09-25.01L65.09-25.01L65.09-25.01Q65.58-26.84 66.58-27.63L66.58-27.63L66.58-27.63Q67.59-28.43 69.60-28.43L69.60-28.43L69.60-28.43Q71.00-28.43 71.55-28.09L71.55-28.09L71.55-28.09Q72.10-27.75 72.10-26.84L72.10-26.84L72.10-26.84Q72.10-25.31 70.58-18.48L70.58-18.48L70.58-18.48Q68.87-10.67 68.87-8.85L68.87-8.85L68.87-8.85Q68.87-7.69 69.36-7.05L69.36-7.05L69.36-7.05Q69.84-6.41 70.64-6.41L70.64-6.41L70.64-6.41Q71.86-6.41 73.54-7.90L73.54-7.90L73.54-7.90Q75.21-9.39 78.02-12.75L78.02-12.75L78.02-12.75Q78.75-13.60 79.67-13.60L79.67-13.60L79.67-13.60Q80.46-13.60 80.92-12.87L80.92-12.87L80.92-12.87Q81.37-12.14 81.37-10.86L81.37-10.86L81.37-10.86Q81.37-8.42 80.22-7.08L80.22-7.08L80.22-7.08Q77.59-3.84 74.57-1.77L74.57-1.77L74.57-1.77Q71.55 0.30 67.71 0.30L67.71 0.30L67.71 0.30Q64.78 0.30 63.41-1.95L63.41-1.95L63.41-1.95Q62.04-4.21 62.04-8.30L62.04-8.30L62.04-8.30Q61-4.15 58.93-1.92L58.93-1.92L58.93-1.92Q56.85 0.30 54.47 0.30L54.47 0.30" fill="#9c0404" stroke="none" stroke-width="none" transform="translate(-209.5050048828125,21.63822901799129)" style="fill: rgb(90, 11, 11);"></path></g><g class="path" style="transform: translate(0px, 0px); transform-origin: -116.665px 7.51323px; animation: 1s linear -0.507692s infinite normal forwards running bounceAlt-2e5de5c3-e70f-4043-b4de-119d3726338a;"><path d="M83.94 0.30L83.94 0.30Q80.15 0.30 77.90-2.44L77.90-2.44L77.90-2.44Q75.64-5.18 75.64-9.64L75.64-9.64L75.64-9.64Q75.64-14.52 77.90-18.88L77.90-18.88L77.90-18.88Q80.15-23.24 83.91-25.89L83.91-25.89L83.91-25.89Q87.66-28.55 91.87-28.55L91.87-28.55L91.87-28.55Q93.21-28.55 93.67-28.03L93.67-28.03L93.67-28.03Q94.12-27.51 94.43-26.17L94.43-26.17L94.43-26.17Q95.71-26.41 97.11-26.41L97.11-26.41L97.11-26.41Q100.10-26.41 100.10-24.28L100.10-24.28L100.10-24.28Q100.10-23.00 99.19-18.18L99.19-18.18L99.19-18.18Q97.78-11.16 97.78-8.42L97.78-8.42L97.78-8.42Q97.78-7.50 98.24-6.95L98.24-6.95L98.24-6.95Q98.70-6.41 99.43-6.41L99.43-6.41L99.43-6.41Q100.59-6.41 102.24-7.90L102.24-7.90L102.24-7.90Q103.88-9.39 106.69-12.75L106.69-12.75L106.69-12.75Q107.42-13.60 108.34-13.60L108.34-13.60L108.34-13.60Q109.13-13.60 109.59-12.87L109.59-12.87L109.59-12.87Q110.04-12.14 110.04-10.86L110.04-10.86L110.04-10.86Q110.04-8.42 108.88-7.08L108.88-7.08L108.88-7.08Q106.38-3.96 103.58-1.83L103.58-1.83L103.58-1.83Q100.77 0.30 98.15 0.30L98.15 0.30L98.15 0.30Q96.14 0.30 94.46-1.07L94.46-1.07L94.46-1.07Q92.78-2.44 91.93-4.82L91.93-4.82L91.93-4.82Q88.75 0.30 83.94 0.30L83.94 0.30zM86.13-5.86L86.13-5.86Q87.47-5.86 88.69-7.44L88.69-7.44L88.69-7.44Q89.91-9.03 90.46-11.65L90.46-11.65L92.72-22.88L92.72-22.88Q90.16-22.81 87.99-20.95L87.99-20.95L87.99-20.95Q85.83-19.09 84.55-16.04L84.55-16.04L84.55-16.04Q83.27-12.99 83.27-9.58L83.27-9.58L83.27-9.58Q83.27-7.69 84.03-6.77L84.03-6.77L84.03-6.77Q84.79-5.86 86.13-5.86L86.13-5.86" fill="#9c0404" stroke="none" stroke-width="none" transform="translate(-209.5050048828125,21.63822901799129)" style="fill: rgb(41, 14, 14);"></path></g><g class="path" style="transform: translate(0px, 0px); transform-origin: -91.775px -6.88177px; animation: 1s linear -0.456923s infinite normal forwards running bounceAlt-2e5de5c3-e70f-4043-b4de-119d3726338a;"><path d="M128.22-13.60L128.22-13.60Q129.01-13.60 129.47-12.87L129.47-12.87L129.47-12.87Q129.93-12.14 129.93-10.86L129.93-10.86L129.93-10.86Q129.93-8.42 128.77-7.08L128.77-7.08L128.77-7.08Q126.15-3.84 123.07-1.77L123.07-1.77L123.07-1.77Q119.99 0.30 116.08 0.30L116.08 0.30L116.08 0.30Q110.72 0.30 108.12-4.58L108.12-4.58L108.12-4.58Q105.53-9.46 105.53-17.20L105.53-17.20L105.53-17.20Q105.53-24.64 107.45-34.16L107.45-34.16L107.45-34.16Q109.37-43.68 113.12-50.51L113.12-50.51L113.12-50.51Q116.88-57.34 122.06-57.34L122.06-57.34L122.06-57.34Q124.99-57.34 126.67-54.63L126.67-54.63L126.67-54.63Q128.34-51.91 128.34-46.85L128.34-46.85L128.34-46.85Q128.34-39.59 124.32-30.01L124.32-30.01L124.32-30.01Q120.29-20.43 113.40-11.04L113.40-11.04L113.40-11.04Q113.83-8.54 114.80-7.47L114.80-7.47L114.80-7.47Q115.78-6.41 117.36-6.41L117.36-6.41L117.36-6.41Q119.86-6.41 121.76-7.84L121.76-7.84L121.76-7.84Q123.65-9.27 126.57-12.75L126.57-12.75L126.57-12.75Q127.31-13.60 128.22-13.60L128.22-13.60zM120.72-51.30L120.72-51.30Q119.32-51.30 117.55-46.24L117.55-46.24L117.55-46.24Q115.78-41.17 114.44-33.67L114.44-33.67L114.44-33.67Q113.09-26.17 112.97-19.28L112.97-19.28L112.97-19.28Q117.30-26.41 119.86-33.58L119.86-33.58L119.86-33.58Q122.43-40.75 122.43-46.66L122.43-46.66L122.43-46.66Q122.43-51.30 120.72-51.30L120.72-51.30" fill="#9c0404" stroke="none" stroke-width="none" transform="translate(-209.5050048828125,21.63822901799129)" style="fill: rgb(0, 0, 0);"></path></g><g class="path" style="transform: translate(0px, 0px); transform-origin: -74.51px 2.54364px; animation: 1s linear -0.406154s infinite normal forwards running bounceAlt-2e5de5c3-e70f-4043-b4de-119d3726338a;"><path d="M128.77-15.01L128.77-15.01Q127.31-14.88 126.42-15.86L126.42-15.86L126.42-15.86Q125.54-16.84 125.54-18.61L125.54-18.61L125.54-18.61Q125.54-20.25 126.36-21.04L126.36-21.04L126.36-21.04Q127.18-21.84 128.77-21.96L128.77-21.96L141.28-23.18L141.28-23.18Q142.80-23.30 143.62-22.42L143.62-22.42L143.62-22.42Q144.45-21.53 144.45-19.82L144.45-19.82L144.45-19.82Q144.45-16.53 141.28-16.23L141.28-16.23L128.77-15.01" fill="#9c0404" stroke="none" stroke-width="none" transform="translate(-209.5050048828125,21.63822901799129)" style="fill: rgb(63, 63, 63);"></path></g><g class="path" style="transform: translate(0px, 0px); transform-origin: -33.245px -4.07677px; animation: 1s linear -0.355385s infinite normal forwards running bounceAlt-2e5de5c3-e70f-4043-b4de-119d3726338a;"><path d="M164.94 0.30L164.94 0.30Q160.74 0.30 157.35-1.77L157.35-1.77L157.35-1.77Q153.96-3.84 152.01-7.78L152.01-7.78L152.01-7.78Q150.06-11.71 150.06-17.08L150.06-17.08L150.06-17.08Q150.06-26.35 154.03-34.25L154.03-34.25L154.03-34.25Q157.99-42.15 165.74-46.94L165.74-46.94L165.74-46.94Q173.48-51.73 184.34-51.73L184.34-51.73L184.34-51.73Q187.15-51.73 190.35-51.30L190.35-51.30L190.35-51.30Q193.55-50.87 196.18-50.02L196.18-50.02L196.18-50.02Q197.88-49.53 197.88-47.58L197.88-47.58L197.88-47.58Q197.88-45.99 196.69-44.59L196.69-44.59L196.69-44.59Q195.50-43.19 193.92-43.19L193.92-43.19L193.92-43.19Q193.43-43.19 193.19-43.25L193.19-43.25L193.19-43.25Q190.02-43.98 187.76-44.32L187.76-44.32L187.76-44.32Q185.50-44.65 183-44.65L183-44.65L183-44.65Q175.25-44.65 169.82-40.90L169.82-40.90L169.82-40.90Q164.40-37.15 161.71-30.99L161.71-30.99L161.71-30.99Q159.03-24.83 159.03-17.69L159.03-17.69L159.03-17.69Q159.03-12.50 161.07-9.67L161.07-9.67L161.07-9.67Q163.11-6.83 166.41-6.83L166.41-6.83L166.41-6.83Q170.13-6.83 172.94-9.88L172.94-9.88L172.94-9.88Q175.74-12.93 178.06-19.76L178.06-19.76L178.06-19.76Q180.38-26.60 182.63-38.31L182.63-38.31L182.63-38.31Q183-40.02 184.10-40.63L184.10-40.63L184.10-40.63Q185.20-41.24 187.03-41.24L187.03-41.24L187.03-41.24Q191.36-41.24 191.36-38.43L191.36-38.43L191.36-38.43Q191.36-37.94 191.17-37.21L191.17-37.21L191.17-37.21Q189.59-31.29 188.28-24.13L188.28-24.13L188.28-24.13Q186.97-16.96 186.97-13.24L186.97-13.24L186.97-13.24Q186.97-9.94 187.94-8.45L187.94-8.45L187.94-8.45Q188.92-6.95 190.93-6.95L190.93-6.95L190.93-6.95Q192.88-6.95 194.65-8.27L194.65-8.27L194.65-8.27Q196.42-9.58 199.10-12.75L199.10-12.75L199.10-12.75Q199.84-13.60 200.75-13.60L200.75-13.60L200.75-13.60Q201.54-13.60 202.00-12.87L202.00-12.87L202.00-12.87Q202.46-12.14 202.46-10.86L202.46-10.86L202.46-10.86Q202.46-8.48 201.30-7.08L201.30-7.08L201.30-7.08Q198.31-3.48 195.44-1.59L195.44-1.59L195.44-1.59Q192.58 0.30 188.43 0.30L188.43 0.30L188.43 0.30Q184.16 0.30 181.54-2.17L181.54-2.17L181.54-2.17Q178.91-4.64 178.24-9.15L178.24-9.15L178.24-9.15Q173.73 0.30 164.94 0.30L164.94 0.30" fill="#9c0404" stroke="none" stroke-width="none" transform="translate(-209.5050048828125,21.63822901799129)" style="fill: rgb(156, 4, 4);"></path></g><g class="path" style="transform: translate(0px, 0px); transform-origin: 6.70499px -6.88177px; animation: 1s linear -0.304615s infinite normal forwards running bounceAlt-2e5de5c3-e70f-4043-b4de-119d3726338a;"><path d="M232.78-13.60L232.78-13.60Q233.57-13.60 234.03-12.87L234.03-12.87L234.03-12.87Q234.48-12.14 234.48-10.86L234.48-10.86L234.48-10.86Q234.48-8.42 233.32-7.08L233.32-7.08L233.32-7.08Q230.58-3.72 227.77-1.71L227.77-1.71L227.77-1.71Q224.97 0.30 221.13 0.30L221.13 0.30L221.13 0.30Q216.43 0.30 213.56-2.38L213.56-2.38L213.56-2.38Q210.69-5.06 210.69-9.52L210.69-9.52L210.69-9.52Q210.69-11.89 213.13-12.93L213.13-12.93L213.13-12.93Q215.82-14.09 216.98-15.40L216.98-15.40L216.98-15.40Q218.14-16.71 218.14-18.61L218.14-18.61L218.14-18.61Q218.14-19.70 217.68-20.25L217.68-20.25L217.68-20.25Q217.22-20.80 216.55-20.80L216.55-20.80L216.55-20.80Q214.90-20.80 212.92-18.42L212.92-18.42L212.92-18.42Q210.94-16.04 209.23-12.29L209.23-12.29L209.23-12.29Q207.52-8.54 206.55-4.58L206.55-4.58L206.55-4.58Q205.88-1.71 204.99-0.70L204.99-0.70L204.99-0.70Q204.11 0.30 202.22 0.30L202.22 0.30L202.22 0.30Q200.32 0.30 199.44-1.07L199.44-1.07L199.44-1.07Q198.56-2.44 198.25-5.31L198.25-5.31L198.25-5.31Q197.94-8.17 197.94-13.72L197.94-13.72L197.94-13.72Q197.94-23.12 199.87-33.31L199.87-33.31L199.87-33.31Q201.79-43.49 205.54-50.42L205.54-50.42L205.54-50.42Q209.29-57.34 214.54-57.34L214.54-57.34L214.54-57.34Q217.34-57.34 219.08-54.93L219.08-54.93L219.08-54.93Q220.82-52.52 220.82-48.68L220.82-48.68L220.82-48.68Q220.82-42.52 217.22-35.90L217.22-35.90L217.22-35.90Q213.62-29.28 205.51-20.43L205.51-20.43L205.51-20.43Q205.33-17.26 205.33-13.91L205.33-13.91L205.33-13.91Q208.25-21.53 212.04-24.98L212.04-24.98L212.04-24.98Q215.82-28.43 219.11-28.43L219.11-28.43L219.11-28.43Q222.16-28.43 224.02-26.35L224.02-26.35L224.02-26.35Q225.88-24.28 225.88-21.23L225.88-21.23L225.88-21.23Q225.88-17.87 224.18-15.07L224.18-15.07L224.18-15.07Q222.47-12.26 218.32-10.06L218.32-10.06L218.32-10.06Q218.56-8.42 219.81-7.41L219.81-7.41L219.81-7.41Q221.06-6.41 222.83-6.41L222.83-6.41L222.83-6.41Q224.72-6.41 226.49-7.87L226.49-7.87L226.49-7.87Q228.26-9.33 231.13-12.75L231.13-12.75L231.13-12.75Q231.86-13.60 232.78-13.60L232.78-13.60zM213.26-51.30L213.26-51.30Q212.16-51.30 210.82-48.16L210.82-48.16L210.82-48.16Q209.47-45.02 208.22-39.68L208.22-39.68L208.22-39.68Q206.97-34.34 206.18-28.06L206.18-28.06L206.18-28.06Q209.96-32.51 212.43-37.76L212.43-37.76L212.43-37.76Q214.90-43.01 214.90-47.27L214.90-47.27L214.90-47.27Q214.90-49.23 214.48-50.26L214.48-50.26L214.48-50.26Q214.05-51.30 213.26-51.30L213.26-51.30" fill="#9c0404" stroke="none" stroke-width="none" transform="translate(-209.5050048828125,21.63822901799129)" style="fill: rgb(90, 11, 11);"></path></g><g class="path" style="transform: translate(0px, 0px); transform-origin: 36.6px 7.57323px; animation: 1s linear -0.253846s infinite normal forwards running bounceAlt-2e5de5c3-e70f-4043-b4de-119d3726338a;"><path d="M235.77 0.30L235.77 0.30Q233.02 0.30 231.28-2.23L231.28-2.23L231.28-2.23Q229.54-4.76 229.54-8.54L229.54-8.54L229.54-8.54Q229.54-13.12 230.15-16.93L230.15-16.93L230.15-16.93Q230.76-20.74 232.17-25.01L232.17-25.01L232.17-25.01Q232.78-26.84 233.87-27.63L233.87-27.63L233.87-27.63Q234.97-28.43 237.35-28.43L237.35-28.43L237.35-28.43Q238.69-28.43 239.21-28.00L239.21-28.00L239.21-28.00Q239.73-27.57 239.73-26.72L239.73-26.72L239.73-26.72Q239.73-26.23 239.06-23.42L239.06-23.42L239.06-23.42Q238.45-21.17 238.08-19.34L238.08-19.34L238.08-19.34Q236.86-12.93 236.86-10.80L236.86-10.80L236.86-10.80Q236.86-9.52 237.17-9.00L237.17-9.00L237.17-9.00Q237.47-8.48 238.14-8.48L238.14-8.48L238.14-8.48Q239.06-8.48 240.43-10.31L240.43-10.31L240.43-10.31Q241.80-12.14 243.36-15.86L243.36-15.86L243.36-15.86Q244.92-19.58 246.38-25.01L246.38-25.01L246.38-25.01Q246.87-26.84 247.87-27.63L247.87-27.63L247.87-27.63Q248.88-28.43 250.89-28.43L250.89-28.43L250.89-28.43Q252.30-28.43 252.84-28.09L252.84-28.09L252.84-28.09Q253.39-27.75 253.39-26.84L253.39-26.84L253.39-26.84Q253.39-25.31 251.87-18.48L251.87-18.48L251.87-18.48Q250.16-10.67 250.16-8.85L250.16-8.85L250.16-8.85Q250.16-7.69 250.65-7.05L250.65-7.05L250.65-7.05Q251.14-6.41 251.93-6.41L251.93-6.41L251.93-6.41Q253.15-6.41 254.83-7.90L254.83-7.90L254.83-7.90Q256.50-9.39 259.31-12.75L259.31-12.75L259.31-12.75Q260.04-13.60 260.96-13.60L260.96-13.60L260.96-13.60Q261.75-13.60 262.21-12.87L262.21-12.87L262.21-12.87Q262.67-12.14 262.67-10.86L262.67-10.86L262.67-10.86Q262.67-8.42 261.51-7.08L261.51-7.08L261.51-7.08Q258.88-3.84 255.86-1.77L255.86-1.77L255.86-1.77Q252.84 0.30 249.00 0.30L249.00 0.30L249.00 0.30Q246.07 0.30 244.70-1.95L244.70-1.95L244.70-1.95Q243.33-4.21 243.33-8.30L243.33-8.30L243.33-8.30Q242.29-4.15 240.22-1.92L240.22-1.92L240.22-1.92Q238.14 0.30 235.77 0.30L235.77 0.30" fill="#9c0404" stroke="none" stroke-width="none" transform="translate(-209.5050048828125,21.63822901799129)" style="fill: rgb(41, 14, 14);"></path></g><g class="path" style="transform: translate(0px, 0px); transform-origin: 65.88px 7.57323px; animation: 1s linear -0.203077s infinite normal forwards running bounceAlt-2e5de5c3-e70f-4043-b4de-119d3726338a;"><path d="M262.06 0.30L262.06 0.30Q259.74 0.30 258.79-2.13L258.79-2.13L258.79-2.13Q257.85-4.58 257.85-9.94L257.85-9.94L257.85-9.94Q257.85-17.87 260.10-25.01L260.10-25.01L260.10-25.01Q260.65-26.78 261.90-27.60L261.90-27.60L261.90-27.60Q263.15-28.43 265.41-28.43L265.41-28.43L265.41-28.43Q266.63-28.43 267.12-28.12L267.12-28.12L267.12-28.12Q267.61-27.82 267.61-26.96L267.61-26.96L267.61-26.96Q267.61-25.99 266.69-22.57L266.69-22.57L266.69-22.57Q266.08-20.13 265.72-18.30L265.72-18.30L265.72-18.30Q265.35-16.47 265.11-13.79L265.11-13.79L265.11-13.79Q267.12-19.03 269.62-22.33L269.62-22.33L269.62-22.33Q272.12-25.62 274.53-27.02L274.53-27.02L274.53-27.02Q276.94-28.43 278.95-28.43L278.95-28.43L278.95-28.43Q282.92-28.43 282.92-24.46L282.92-24.46L282.92-24.46Q282.92-22.08 281.58-15.86L281.58-15.86L281.58-15.86Q280.42-10.55 280.42-8.85L280.42-8.85L280.42-8.85Q280.42-6.41 282.19-6.41L282.19-6.41L282.19-6.41Q283.41-6.41 285.08-7.90L285.08-7.90L285.08-7.90Q286.76-9.39 289.57-12.75L289.57-12.75L289.57-12.75Q290.30-13.60 291.21-13.60L291.21-13.60L291.21-13.60Q292.01-13.60 292.46-12.87L292.46-12.87L292.46-12.87Q292.92-12.14 292.92-10.86L292.92-10.86L292.92-10.86Q292.92-8.42 291.76-7.08L291.76-7.08L291.76-7.08Q289.14-3.84 286.12-1.77L286.12-1.77L286.12-1.77Q283.10 0.30 279.26 0.30L279.26 0.30L279.26 0.30Q276.15 0.30 274.56-1.49L274.56-1.49L274.56-1.49Q272.98-3.29 272.98-6.71L272.98-6.71L272.98-6.71Q272.98-8.42 273.83-12.81L273.83-12.81L273.83-12.81Q274.62-16.65 274.62-18.12L274.62-18.12L274.62-18.12Q274.62-19.09 273.95-19.09L273.95-19.09L273.95-19.09Q273.16-19.09 271.72-17.05L271.72-17.05L271.72-17.05Q270.29-15.01 268.80-11.65L268.80-11.65L268.80-11.65Q267.30-8.30 266.39-4.58L266.39-4.58L266.39-4.58Q265.72-1.71 264.83-0.70L264.83-0.70L264.83-0.70Q263.95 0.30 262.06 0.30L262.06 0.30" fill="#9c0404" stroke="none" stroke-width="none" transform="translate(-209.5050048828125,21.63822901799129)" style="fill: rgb(0, 0, 0);"></path></g><g class="path" style="transform: translate(0px, 0px); transform-origin: 82.93px 16.2682px; animation: 1s linear -0.152308s infinite normal forwards running bounceAlt-2e5de5c3-e70f-4043-b4de-119d3726338a;"><path d="M292.19 0.30L292.19 0.30Q289.51 0.30 288.13-1.16L288.13-1.16L288.13-1.16Q286.76-2.62 286.76-5.00L286.76-5.00L286.76-5.00Q286.76-7.75 288.32-9.39L288.32-9.39L288.32-9.39Q289.87-11.04 292.68-11.04L292.68-11.04L292.68-11.04Q295.36-11.04 296.73-9.73L296.73-9.73L296.73-9.73Q298.11-8.42 298.11-5.86L298.11-5.86L298.11-5.86Q298.11-3.05 296.52-1.37L296.52-1.37L296.52-1.37Q294.94 0.30 292.19 0.30L292.19 0.30" fill="#9c0404" stroke="none" stroke-width="none" transform="translate(-209.5050048828125,21.63822901799129)" style="fill: rgb(63, 63, 63);"></path></g><g class="path" style="transform: translate(0px, 0px); transform-origin: 117.94px -4.07677px; animation: 1s linear -0.101538s infinite normal forwards running bounceAlt-2e5de5c3-e70f-4043-b4de-119d3726338a;"><path d="M328.36 0.30L328.36 0.30Q321.10 0.30 315.74-2.35L315.74-2.35L315.74-2.35Q310.37-5.00 307.50-9.88L307.50-9.88L307.50-9.88Q304.63-14.76 304.63-21.23L304.63-21.23L304.63-21.23Q304.63-30.20 308.02-37.15L308.02-37.15L308.02-37.15Q311.41-44.10 317.20-47.92L317.20-47.92L317.20-47.92Q323.00-51.73 330.07-51.73L330.07-51.73L330.07-51.73Q336.66-51.73 340.08-48.34L340.08-48.34L340.08-48.34Q343.49-44.96 343.49-39.41L343.49-39.41L343.49-39.41Q343.49-35.69 342.18-33.43L342.18-33.43L342.18-33.43Q340.87-31.17 338.43-31.17L338.43-31.17L338.43-31.17Q336.72-31.17 335.74-31.96L335.74-31.96L335.74-31.96Q334.77-32.76 334.77-34.28L334.77-34.28L334.77-34.28Q334.77-34.83 335.01-36.30L335.01-36.30L335.01-36.30Q335.38-38.13 335.38-39.22L335.38-39.22L335.38-39.22Q335.38-44.77 329.46-44.77L329.46-44.77L329.46-44.77Q325.44-44.77 321.78-42.15L321.78-42.15L321.78-42.15Q318.12-39.53 315.86-34.43L315.86-34.43L315.86-34.43Q313.60-29.34 313.60-22.33L313.60-22.33L313.60-22.33Q313.60-15.01 317.69-11.01L317.69-11.01L317.69-11.01Q321.78-7.01 329.77-7.01L329.77-7.01L329.77-7.01Q333.73-7.01 337.79-8.02L337.79-8.02L337.79-8.02Q341.84-9.03 346.79-11.10L346.79-11.10L346.79-11.10Q347.70-11.47 348.31-11.47L348.31-11.47L348.31-11.47Q349.29-11.47 349.77-10.74L349.77-10.74L349.77-10.74Q350.26-10.00 350.26-8.85L350.26-8.85L350.26-8.85Q350.26-5.12 346.24-3.35L346.24-3.35L346.24-3.35Q341.91-1.46 337.24-0.58L337.24-0.58L337.24-0.58Q332.57 0.30 328.36 0.30L328.36 0.30" fill="#9c0404" stroke="none" stroke-width="none" transform="translate(-209.5050048828125,21.63822901799129)" style="fill: rgb(156, 4, 4);"></path></g><g class="path" style="transform: translate(0px, 0px); transform-origin: 151.92px 7.54323px; animation: 1s linear -0.0507692s infinite normal forwards running bounceAlt-2e5de5c3-e70f-4043-b4de-119d3726338a;"><path d="M376.61-18.73L376.61-18.73Q377.41-18.73 377.83-17.93L377.83-17.93L377.83-17.93Q378.26-17.14 378.26-15.92L378.26-15.92L378.26-15.92Q378.26-12.99 376.49-12.44L376.49-12.44L376.49-12.44Q372.83-11.16 368.44-10.98L368.44-10.98L368.44-10.98Q367.28-5.86 363.87-2.78L363.87-2.78L363.87-2.78Q360.45 0.30 356.12 0.30L356.12 0.30L356.12 0.30Q352.46 0.30 349.87-1.46L349.87-1.46L349.87-1.46Q347.27-3.23 345.93-6.16L345.93-6.16L345.93-6.16Q344.59-9.09 344.59-12.50L344.59-12.50L344.59-12.50Q344.59-17.14 346.36-20.77L346.36-20.77L346.36-20.77Q348.13-24.40 351.24-26.44L351.24-26.44L351.24-26.44Q354.35-28.49 358.13-28.49L358.13-28.49L358.13-28.49Q362.77-28.49 365.60-25.28L365.60-25.28L365.60-25.28Q368.44-22.08 368.93-17.38L368.93-17.38L368.93-17.38Q371.80-17.57 375.76-18.61L375.76-18.61L375.76-18.61Q376.25-18.73 376.61-18.73L376.61-18.73zM356.61-6.16L356.61-6.16Q358.56-6.16 359.99-7.75L359.99-7.75L359.99-7.75Q361.43-9.33 361.91-12.32L361.91-12.32L361.91-12.32Q360.02-13.60 359.02-15.68L359.02-15.68L359.02-15.68Q358.01-17.75 358.01-20.07L358.01-20.07L358.01-20.07Q358.01-21.04 358.19-22.02L358.19-22.02L357.89-22.02L357.89-22.02Q355.45-22.02 353.83-19.67L353.83-19.67L353.83-19.67Q352.21-17.32 352.21-13.05L352.21-13.05L352.21-13.05Q352.21-9.70 353.53-7.93L353.53-7.93L353.53-7.93Q354.84-6.16 356.61-6.16L356.61-6.16" fill="#9c0404" stroke="none" stroke-width="none" transform="translate(-209.5050048828125,21.63822901799129)" style="fill: rgb(90, 11, 11);"></path></g><g class="path" style="transform: translate(0px, 0px); transform-origin: 188.735px 7.57323px; animation: 1s linear 0s infinite normal forwards running bounceAlt-2e5de5c3-e70f-4043-b4de-119d3726338a;"><path d="M377.35 0.30L377.35 0.30Q375.03 0.30 374.08-2.13L374.08-2.13L374.08-2.13Q373.14-4.58 373.14-9.94L373.14-9.94L373.14-9.94Q373.14-17.87 375.39-25.01L375.39-25.01L375.39-25.01Q375.94-26.78 377.19-27.60L377.19-27.60L377.19-27.60Q378.44-28.43 380.70-28.43L380.70-28.43L380.70-28.43Q381.92-28.43 382.41-28.12L382.41-28.12L382.41-28.12Q382.90-27.82 382.90-26.96L382.90-26.96L382.90-26.96Q382.90-25.99 381.98-22.57L381.98-22.57L381.98-22.57Q381.37-20.13 381.01-18.33L381.01-18.33L381.01-18.33Q380.64-16.53 380.40-13.85L380.40-13.85L380.40-13.85Q382.04-18.61 384.33-21.90L384.33-21.90L384.33-21.90Q386.62-25.19 389.03-26.81L389.03-26.81L389.03-26.81Q391.44-28.43 393.57-28.43L393.57-28.43L393.57-28.43Q395.71-28.43 396.59-27.45L396.59-27.45L396.59-27.45Q397.48-26.47 397.48-24.46L397.48-24.46L397.48-24.46Q397.48-22.51 396.32-17.38L396.32-17.38L396.32-17.38Q395.83-15.19 395.65-14.09L395.65-14.09L395.65-14.09Q398.70-21.59 402.42-25.01L402.42-25.01L402.42-25.01Q406.14-28.43 409.37-28.43L409.37-28.43L409.37-28.43Q413.34-28.43 413.34-24.46L413.34-24.46L413.34-24.46Q413.34-22.08 411.99-15.86L411.99-15.86L411.99-15.86Q410.84-10.55 410.84-8.85L410.84-8.85L410.84-8.85Q410.84-6.41 412.60-6.41L412.60-6.41L412.60-6.41Q413.82-6.41 415.50-7.90L415.50-7.90L415.50-7.90Q417.18-9.39 419.99-12.75L419.99-12.75L419.99-12.75Q420.72-13.60 421.63-13.60L421.63-13.60L421.63-13.60Q422.43-13.60 422.88-12.87L422.88-12.87L422.88-12.87Q423.34-12.14 423.34-10.86L423.34-10.86L423.34-10.86Q423.34-8.42 422.18-7.08L422.18-7.08L422.18-7.08Q419.56-3.84 416.54-1.77L416.54-1.77L416.54-1.77Q413.52 0.30 409.68 0.30L409.68 0.30L409.68 0.30Q406.57 0.30 404.98-1.49L404.98-1.49L404.98-1.49Q403.39-3.29 403.39-6.71L403.39-6.71L403.39-6.71Q403.39-8.42 404.25-12.81L404.25-12.81L404.25-12.81Q405.04-16.65 405.04-18.12L405.04-18.12L405.04-18.12Q405.04-19.09 404.37-19.09L404.37-19.09L404.37-19.09Q403.58-19.09 402.11-17.05L402.11-17.05L402.11-17.05Q400.65-15.01 399.18-11.65L399.18-11.65L399.18-11.65Q397.72-8.30 396.81-4.58L396.81-4.58L396.81-4.58Q396.13-1.65 395.25-0.67L395.25-0.67L395.25-0.67Q394.37 0.30 392.41 0.30L392.41 0.30L392.41 0.30Q390.40 0.30 389.39-1.62L389.39-1.62L389.39-1.62Q388.39-3.54 388.39-6.28L388.39-6.28L388.39-6.28Q388.39-8.60 389.00-12.99L389.00-12.99L389.00-12.99Q389.49-16.90 389.49-18.12L389.49-18.12L389.49-18.12Q389.49-19.09 388.81-19.09L388.81-19.09L388.81-19.09Q387.90-19.09 386.50-16.90L386.50-16.90L386.50-16.90Q385.09-14.70 383.78-11.29L383.78-11.29L383.78-11.29Q382.47-7.87 381.68-4.58L381.68-4.58L381.68-4.58Q381.01-1.71 380.12-0.70L380.12-0.70L380.12-0.70Q379.24 0.30 377.35 0.30L377.35 0.30" fill="#9c0404" stroke="none" stroke-width="none" transform="translate(-209.5050048828125,21.63822901799129)" style="fill: rgb(41, 14, 14);"></path></g></g>
</g>
</g>
<style id="bounceAlt-2e5de5c3-e70f-4043-b4de-119d3726338a" data-anikit="">@keyframes bounceAlt-2e5de5c3-e70f-4043-b4de-119d3726338a
{
  0% {
    animation-timing-function: cubic-bezier(0.1348,0.3256,0.2495,0.8687);
    transform: translate(0, 0px);
  }
  51% {
    animation-timing-function: cubic-bezier(0.7426,0.1782,0.8523,0.6514);
    transform: translate(0, -14px);
  }
  100% {
    transform: translate(0, 0px);
  }
}</style></svg>